# xmcd
#
# Track frame offsets:
#  150
#  13664
#  23322
#  35135
#  47398
#  59968
#  74284
#  87650
#  102149
#  115379
#  126409
#  140800
#  154932
#  164886
#  177558
#  192394
#  204899
#  219957
#  230845
#  245285
#
# Disc length: 3454 seconds
#
# Revision: 0
# Processed by: cddbd v1.5.1PL2 Copyright (c) Steve Scherf et al.
# Submitted via: Collectorz.com_Music_Collector 6.9
#
DISCID=2f0d7c14
DTITLE=Nat King Cole - The Essential Nat King Cole Vol. 3
DYEAR=2004
DGENRE=
TTITLE0=(Get Your Kicks On) Route 66
TTITLE1=My Funny Valentine
TTITLE2=Nature Boy
TTITLE3=Pretend
TTITLE4=Love Is Here To Stay
TTITLE5=Because You're Mine
TTITLE6=Baby,Baby All THe Time
TTITLE7=Call The Police
TTITLE8=I Don't Stand A Ghost Of A Chance
TTITLE9=Babs
TTITLE10=Christmas Song
TTITLE11=Dough-Ra-Me
TTITLE12=I'm Never Satisfied
TTITLE13=Jet
TTITLE14=Red Sails In The Sunset
TTITLE15=Rose Room
TTITLE16=This Will Make You Laugh
TTITLE17=Sweet Georgia Brown
TTITLE18=Too Young
TTITLE19=Penthouse Serenade (When We're Alone)
EXTD=
EXTT0=
EXTT1=
EXTT2=
EXTT3=
EXTT4=
EXTT5=
EXTT6=
EXTT7=
EXTT8=
EXTT9=
EXTT10=
EXTT11=
EXTT12=
EXTT13=
EXTT14=
EXTT15=
EXTT16=
EXTT17=
EXTT18=
EXTT19=
PLAYORDER=
